<svg xmlns="http://www.w3.org/2000/svg" width="1200" height="630" viewBox="0 0 1200 630" role="img" aria-label="Psk. Basak Seref">
  <defs>
    <linearGradient id="bg" x1="0" y1="0" x2="1" y2="1">
      <stop offset="0%" stop-color="#0f172a" />
      <stop offset="100%" stop-color="#334155" />
    </linearGradient>
    <linearGradient id="grain" x1="0" y1="0" x2="0" y2="1">
      <stop offset="0%" stop-color="#fcd34d" />
      <stop offset="100%" stop-color="#f59e0b" />
    </linearGradient>
  </defs>

  <rect width="1200" height="630" fill="url(#bg)" />

  <text x="120" y="240" font-family="Inter, Arial, sans-serif" font-size="56" font-weight="700" fill="#ffffff">
    Psk. Ba_ak ^eref
  </text>
  <text x="120" y="310" font-family="Inter, Arial, sans-serif" font-size="34" font-weight="400" fill="#e2e8f0">
    Uzman Psikolog & Įevrimiįi Terapi
  </text>

  <g transform="translate(950,130) scale(1.6)">
    <path d="M32 14 L32 50" stroke="#fde68a" stroke-width="2.2" stroke-linecap="round" />
    <ellipse cx="27.5" cy="19" rx="3.2" ry="2" fill="url(#grain)" transform="rotate(-30 27.5 19)" />
    <ellipse cx="27" cy="24.5" rx="3.2" ry="2" fill="url(#grain)" transform="rotate(-30 27 24.5)" />
    <ellipse cx="26.8" cy="30" rx="3.2" ry="2" fill="url(#grain)" transform="rotate(-30 26.8 30)" />
    <ellipse cx="27.2" cy="35.5" rx="3.2" ry="2" fill="url(#grain)" transform="rotate(-30 27.2 35.5)" />
    <ellipse cx="28" cy="41" rx="3.2" ry="2" fill="url(#grain)" transform="rotate(-30 28 41)" />
    <ellipse cx="36.5" cy="21" rx="3.2" ry="2" fill="url(#grain)" transform="rotate(30 36.5 21)" />
    <ellipse cx="37" cy="26.5" rx="3.2" ry="2" fill="url(#grain)" transform="rotate(30 37 26.5)" />
    <ellipse cx="37.2" cy="32" rx="3.2" ry="2" fill="url(#grain)" transform="rotate(30 37.2 32)" />
    <ellipse cx="36.8" cy="37.5" rx="3.2" ry="2" fill="url(#grain)" transform="rotate(30 36.8 37.5)" />
    <ellipse cx="36" cy="43" rx="3.2" ry="2" fill="url(#grain)" transform="rotate(30 36 43)" />
  </g>
</svg>

